<svg xmlns="http://www.w3.org/2000/svg" xmlns:xlink="http://www.w3.org/1999/xlink" viewBox="0 0 1757.12 476.62"><defs><style>.cls-1{isolation:isolate;}.cls-2{fill:url(#linear-gradient);}.cls-11,.cls-3,.cls-5,.cls-7,.cls-8,.cls-9{mix-blend-mode:multiply;}.cls-3{fill:url(#linear-gradient-2);}.cls-10,.cls-4{mix-blend-mode:screen;}.cls-4{fill:url(#linear-gradient-3);}.cls-5{fill:url(#linear-gradient-4);}.cls-6{fill:url(#linear-gradient-5);}.cls-7{fill:url(#linear-gradient-6);}.cls-8{fill:url(#linear-gradient-7);}.cls-9{fill:url(#linear-gradient-8);}.cls-10{fill:url(#linear-gradient-9);}.cls-11{fill:url(#linear-gradient-10);}.cls-12{fill:#0b132a;}.cls-13{fill:#3367f8;}</style><linearGradient id="linear-gradient" x1="118.87" y1="357.75" x2="376.15" y2="100.46" gradientUnits="userSpaceOnUse"><stop offset="0" stop-color="#2652dc"/><stop offset="1" stop-color="#528cff"/></linearGradient><linearGradient id="linear-gradient-2" x1="118.36" y1="135.54" x2="118.36" y2="329.98" gradientUnits="userSpaceOnUse"><stop offset="0" stop-color="#2652dc"/><stop offset="1" stop-color="#fff"/></linearGradient><linearGradient id="linear-gradient-3" x1="347.58" y1="148.78" x2="453.58" y2="42.78" gradientUnits="userSpaceOnUse"><stop offset="0" stop-color="#0b132a"/><stop offset="1" stop-color="#528cff"/></linearGradient><linearGradient id="linear-gradient-4" x1="328.01" y1="118.36" x2="101.96" y2="118.36" xlink:href="#linear-gradient-2"/><linearGradient id="linear-gradient-5" x1="385.44" y1="358.25" x2="164.7" y2="358.25" gradientUnits="userSpaceOnUse"><stop offset="0" stop-color="#528cff"/><stop offset="1" stop-color="#2652dc"/></linearGradient><linearGradient id="linear-gradient-6" x1="361.29" y1="381.03" x2="257.75" y2="277.5" gradientUnits="userSpaceOnUse"><stop offset="0" stop-color="#fff"/><stop offset="1" stop-color="#2652dc"/></linearGradient><linearGradient id="linear-gradient-7" x1="459.68" y1="207.29" x2="321.36" y2="207.29" xlink:href="#linear-gradient-2"/><linearGradient id="linear-gradient-8" x1="269.33" y1="337.81" x2="269.33" y2="443.76" gradientUnits="userSpaceOnUse"><stop offset="0" stop-color="#fff"/><stop offset="1" stop-color="#fff"/></linearGradient><linearGradient id="linear-gradient-9" x1="147.57" y1="269.33" x2="0.25" y2="269.33" xlink:href="#linear-gradient-3"/><linearGradient id="linear-gradient-10" x1="207.29" y1="10" x2="207.29" y2="148.49" xlink:href="#linear-gradient-2"/></defs><g class="cls-1"><g id="Layer_2" data-name="Layer 2"><g id="Layer_1-2" data-name="Layer 1"><path class="cls-2" d="M0,238.31C0,369.92,106.69,476.62,238.31,476.62s238.31-106.7,238.31-238.31S369.92,0,238.31,0,0,106.69,0,238.31Zm147.11-22.84a68.37,68.37,0,0,1,68.36-68.36h45.67a68.36,68.36,0,0,1,68.36,68.36v45.67a68.35,68.35,0,0,1-68.36,68.36H231.48a46.69,46.69,0,0,0-29.82,10.73l-54.55,45.15V215.47Z"/><path class="cls-3" d="M147.11,385.37V215.47c0-.28,0-.56,0-.84a68.36,68.36,0,0,1,68.34-67.52H91.24c-50,0-91,40.23-91.24,90.23v1c0,2,0,4,.07,5.94,0,1,.08,2,.11,3s.06,1.91.11,2.86c.07,1.36.16,2.7.25,4.05,0,.57.06,1.14.1,1.71.12,1.57.26,3.13.4,4.69l.09,1c.17,1.73.36,3.44.56,5.16,0,.15,0,.3.05.46.22,1.82.47,3.64.73,5.45,0,0,0,.08,0,.11,16.61,114.8,115,203.1,234.25,203.88C187,476.06,147.11,435.16,147.11,385.37Z"/><path class="cls-4" d="M476.54,232.36c0-1-.07-2-.11-3s-.06-1.91-.11-2.86c-.06-1.36-.15-2.71-.24-4.06,0-.56-.07-1.13-.11-1.7-.11-1.57-.25-3.13-.4-4.7,0-.33-.05-.66-.08-1-.17-1.72-.36-3.44-.56-5.15l-.06-.46q-.33-2.73-.72-5.45s0-.08,0-.12C457.53,89.1,359.1.8,239.89,0,289.6.55,329.5,41.45,329.5,91.24v169.9c0,.28,0,.56,0,.84a68.35,68.35,0,0,1-68.34,67.52H385.37c50,0,91.05-40.23,91.24-90.22,0-.33,0-.65,0-1Q476.62,235.33,476.54,232.36Z"/><path class="cls-5" d="M239.28,0h-1c-2,0-4,0-5.95.07l-3,.11c-1,0-1.91.06-2.86.11-1.36.07-2.71.16-4.06.25l-1.7.1c-1.57.12-3.13.26-4.7.4l-1,.09c-1.72.17-3.44.36-5.15.56l-.46.05c-1.82.22-3.64.47-5.45.73h-.12C89.1,19.09.8,117.51,0,236.73.55,187,41.45,147.11,91.24,147.11h169.9l.84,0a68.34,68.34,0,0,1,67.52,68.33V91.24C329.5,41.25,289.27.2,239.28,0Z"/><path class="cls-6" d="M261.14,329.5H385.37c49.79,0,90.69-39.9,91.23-89.61-.78,119.21-89.08,217.64-203.88,234.24l-.11,0q-2.72.39-5.45.72l-.46.06c-1.72.2-3.43.39-5.16.56l-1,.08c-1.56.15-3.12.29-4.69.4l-1.71.11c-1.35.09-2.69.18-4.05.24-.95.05-1.91.08-2.86.11s-2,.09-3,.11q-3,.07-5.94.08h-1c-50-.2-90.23-41.24-90.23-91.24l54.55-45.15a46.69,46.69,0,0,1,29.82-10.73Z"/><path class="cls-7" d="M261.14,329.5H385.37c49.79,0,90.69-39.9,91.23-89.61-.78,119.21-89.08,217.64-203.88,234.24l-.11,0q-2.72.39-5.45.72l-.46.06c-1.72.2-3.43.39-5.16.56l-1,.08c-1.56.15-3.12.29-4.69.4l-1.71.11c-1.35.09-2.69.18-4.05.24-.95.05-1.91.08-2.86.11s-2,.09-3,.11q-3,.07-5.94.08h-1c-50-.2-90.23-41.24-90.23-91.24l54.55-45.15a46.69,46.69,0,0,1,29.82-10.73Z"/><path class="cls-8" d="M329.27,85.08c.14,2,.23,4.09.23,6.16v169.9c0,.28,0,.56,0,.84a68.35,68.35,0,0,1-68.34,67.52H385.37c2.08,0,4.13-.09,6.17-.23A178.23,178.23,0,0,0,329.27,85.08Z"/><path class="cls-9" d="M391.54,329.27c-2,.14-4.09.23-6.17.23H231.48a46.69,46.69,0,0,0-29.82,10.73l-54.55,45.15c0,2.08.1,4.13.23,6.17a178.24,178.24,0,0,0,244.2-62.27Z"/><path class="cls-10" d="M85.08,147.34a178.25,178.25,0,0,0,62.26,244.2c-.13-2-.23-4.09-.23-6.17V215.47c0-.28,0-.56,0-.84a68.36,68.36,0,0,1,68.34-67.52H91.24C89.17,147.11,87.12,147.21,85.08,147.34Z"/><path class="cls-11" d="M85.08,147.34c2-.13,4.09-.23,6.16-.23h169.9l.84,0a68.34,68.34,0,0,1,67.52,68.33V91.24c0-2.07-.09-4.12-.23-6.16A178.24,178.24,0,0,0,85.08,147.34Z"/><path class="cls-12" d="M620.83,126.3H625c2.81,0,6.21,0,10.06.14h11.53a59.62,59.62,0,0,1,33.57,9.91,71,71,0,0,1,24.1,26.17,74.75,74.75,0,0,1,9,36.53c0,13.45-3,25.58-9,36.52a70.29,70.29,0,0,1-24.1,26.32,60.6,60.6,0,0,1-33.57,9.76,45.65,45.65,0,0,1-20.26-4.29,50,50,0,0,1-14.93-11.24c.59,12.28,1.62,25.44,3.25,39.34,1.77,16.26,4.44,33.86,7.84,52.49H549.71q10-77.85,6.94-139c-1.92-40.66-7.83-68.31-17.59-82.65ZM639.76,235c8.13-7.69,14.19-17.3,18.48-28.69a78.56,78.56,0,0,0,4.88-33.56c-.74-10.95-4.73-19.67-11.83-26.18s-17.89-8.87-32.38-6.8a442.54,442.54,0,0,0-6.66,48.8,461.16,461.16,0,0,0-.88,58A39.55,39.55,0,0,0,639.76,235Z"/><path class="cls-12" d="M763.74,153.09q10.6,3.14,14.54,12.57c2.22,6.42,1.44,12.7-2.23,19s-9.69,11.13-17.81,14.41c-8.12,3-15.72,3.4-22.79,1.31s-11.79-6.29-14.41-12.58a21.72,21.72,0,0,1,2.23-19.12c3.8-6.29,9.69-11,17.68-14.28C749.2,151.38,756.8,151,763.74,153.09Zm-43.35,64.17c3.66,6.55,6.15,17.16,7.59,31.69a358,358,0,0,1,1.44,48.59A376.2,376.2,0,0,1,724.71,348H784q-5.12-37.73-7.07-69.81c-1.31-21.35-.53-45.84,2.35-73.73Z"/><path class="cls-12" d="M859.08,203.9c5.5,15.46,13.62,33.4,24.62,54,4.85-10,6.95-18.73,6-26.32s-4.58-16.77-11.66-27.25h64.18c-3.41,3.41-7.47,7.34-12.18,11.66A177.13,177.13,0,0,0,909,238.61,252.14,252.14,0,0,0,889.08,268a801.78,801.78,0,0,0,50.15,79.76l-57.89.39c-8.24-17.81-18.59-37.59-31.29-59.72-6.55,11.91-9.69,22.13-9.56,30.38s4.19,18.21,11.91,29.6l-64.17.13c3.4-3.53,7.6-7.46,12.83-11.92s12.18-12.18,20.83-22.92a204.19,204.19,0,0,0,22.66-34.83q-34.57-66.6-44.4-75Z"/><path class="cls-13" d="M981.51,150.55c10.64-10.06,24-17.16,39.77-21.3a108.07,108.07,0,0,1,47-2.07c15.52,2.81,28.09,9.76,37.7,20.7l-33,51.31c-4.44-16.7-9-29.13-13.75-37.55S1050,148,1045.53,145.52s-8.28-3.11-11.68-2.07a17.38,17.38,0,0,0-7.84,4.43c-4.14,5.48-4.87,11.39-2.21,17.45s7.54,12.72,14.64,19.37c7.09,6.81,15.23,13.9,24.39,21.44,10.35,8.29,20.26,17,29.87,26.33a127,127,0,0,1,23.22,29.27,51.62,51.62,0,0,1,6.8,32.53c-2.37,14.35-9.17,26-20.55,34.9s-24.84,14.64-40.67,17.45a112.7,112.7,0,0,1-47.61-1.77,88.37,88.37,0,0,1-41.11-22.33c-11.53-10.95-18.63-25.73-21.44-44.36l61.81-19.23c-1.92,11.54-.59,23.51,4,35.79S1028.38,317.19,1037,325s17.59,10.5,27.06,8.28c8.87-5.17,10.5-14.34,4.73-27.21s-17.6-26.61-35.34-41.4l-5.33-4.44c-10-8.13-19.81-16.26-29.13-24.54a168.34,168.34,0,0,1-23.21-24.4c-6.06-8.13-9.32-15.82-9.91-23.36C965.68,173,970.86,160.6,981.51,150.55Z"/><path class="cls-13" d="M1196.31,198.14c-.26,9-.66,15.32-1.31,19l20-.26V227h-19.91a203.54,203.54,0,0,0-3.93,32.22,170.11,170.11,0,0,0,1,34.18c1.44,10.22,4.45,18.21,9.17,23.84s11.52,7.86,20.69,6.55c-8.12,15.06-18.21,24-30.52,26.32s-24.23-1.18-35.75-10.87a34.93,34.93,0,0,1-11.13-23.83,144.17,144.17,0,0,1,.52-29.08c.39-4.19.79-8.25.92-12.18.91-11.92,1-22,.26-30.12s-2.75-13.88-6-17h-10.21V216.87c2.88,0,9.95-2.1,21.09-6.29a181.75,181.75,0,0,0,27.5-13c7.2-4.32,13.62-7.72,19-10.34C1197.09,190.67,1196.7,194.21,1196.31,198.14Z"/><path class="cls-13" d="M1321.25,320.59a61.16,61.16,0,0,1-23,21.88c-9.3,4.84-18.46,6.55-27.76,5.1s-17-7.07-23.45-16.5-9.82-23.83-10.47-43a314.76,314.76,0,0,0-1.31-38.89c-1.31-12.45-3.54-22.4-6.81-30.13l63.65-14.53a220.9,220.9,0,0,0-5,23.7,243.47,243.47,0,0,0-2.88,31.83,248.84,248.84,0,0,0,1.83,36c1.57,12.71,5,20.83,10.09,24.1s10.47,2,15.84-4.19,9.17-16.24,11.4-30.25c.39-19-.53-34-2.62-45.19s-4.58-18.33-7.2-21.74l64.69-14.4c-3,5.23-5.36,15.71-6.81,31.43s-1.83,33.79-.91,54.09a328.38,328.38,0,0,0,7.86,58.67h-64.44c.13-.13.39-.26.52-.52,1.57-1.44,4.19-4.72,7.73-9.69s6.81-11.79,9.69-20.43,4.32-19,4.06-31.18h-4.71C1330.81,299.64,1327.54,310.9,1321.25,320.59Z"/><path class="cls-13" d="M1528.32,220c-1.71,26.46-1,54.88,2.09,85.65,1.44,13.49,3.54,27.9,6.42,43.22h-58.94q1.38-10,1.57-14.93a98.05,98.05,0,0,1-14,11.27,35.82,35.82,0,0,1-20.3,5.89,47.61,47.61,0,0,1-29.21-9.82c-8.77-6.68-15.71-15.46-21-26.46a85.61,85.61,0,0,1-7.86-36.93,84.45,84.45,0,0,1,7.86-36.67c5.24-11,12.18-19.78,20.82-26.2a49.85,49.85,0,0,1,29.34-10.21c9.17,0,17.16,2.22,23.84,6.68a59.51,59.51,0,0,1,16.63,16.76,106.19,106.19,0,0,1,10.61,20c2.49,6.81,4.32,12.44,5.5,17s1.57,6.94,1.57,6.94l4.72-.79c-.4-11-2.49-20.82-6.29-29.2a181.2,181.2,0,0,0-13.23-23.84,70.37,70.37,0,0,1-9.69-22.92,188.61,188.61,0,0,1-4.45-26.33l62.47-16.63C1532.77,171.16,1530,193.69,1528.32,220Zm-93,3.67c-3.15,5-4.85,11.65-5.37,19.91a94.54,94.54,0,0,0,3.27,27.89,111,111,0,0,0,11.13,27.9c4.72,8.25,10,14.93,15.72,19.91s11.13,7.46,16.63,7.46,9.56-2.49,12.71-7.46,5-11.66,5.37-19.91-.66-17.55-3.15-27.9a120.45,120.45,0,0,0-11.26-27.89,77.65,77.65,0,0,0-15.58-19.91c-5.77-5-11.27-7.47-16.64-7.47S1438.47,218.7,1435.33,223.68Z"/><path class="cls-13" d="M1586.2,153.09q10.62,3.14,14.54,12.57c2.23,6.42,1.44,12.7-2.22,19s-9.7,11.13-17.82,14.41c-8.12,3-15.71,3.4-22.79,1.31s-11.78-6.29-14.4-12.58c-2.23-6.42-1.57-12.83,2.22-19.12s9.7-11,17.69-14.28C1571.67,151.38,1579.26,151,1586.2,153.09Zm-43.35,64.17c3.67,6.55,6.16,17.16,7.6,31.69a361.28,361.28,0,0,1,1.44,48.59,377.85,377.85,0,0,1-4.71,50.43h59.32q-5.1-37.73-7.07-69.81c-1.31-21.35-.52-45.84,2.36-73.73Z"/><path class="cls-13" d="M1720.45,214.64A74.12,74.12,0,0,1,1747,241a71.21,71.21,0,0,1,0,73.08,74.17,74.17,0,0,1-26.58,26.32,74.74,74.74,0,0,1-74.52,0,75.24,75.24,0,0,1-26.59-26.32,71.21,71.21,0,0,1,0-73.08,75.19,75.19,0,0,1,26.59-26.33,75.6,75.6,0,0,1,74.52,0Zm-58.81,3.14c-4.45.66-7.46,4.06-9.3,10.09s-2.22,13.75-1,23c.91,9.43,3.4,19.51,7.33,30.78a154.08,154.08,0,0,0,14,29.86c5.24,8.77,10.74,15.58,16.11,20.17,5.63,4.84,10.61,7.07,15.2,6.28,4.32-.65,7.46-4.06,9.16-10.08,1.71-5.76,2.1-13.49,1.05-22.92a141.32,141.32,0,0,0-7.33-30.91,156.59,156.59,0,0,0-14-29.73c-5.24-8.64-10.74-15.45-16.24-20.3-4.84-4.19-9.3-6.42-13.36-6.42A6.45,6.45,0,0,0,1661.64,217.78Z"/></g></g></g></svg>