<svg xmlns="http://www.w3.org/2000/svg" xmlns:xlink="http://www.w3.org/1999/xlink" viewBox="0 0 476.62 476.62"><defs><style>.cls-1{isolation:isolate;}.cls-2{fill:url(#linear-gradient);}.cls-11,.cls-3,.cls-5,.cls-7,.cls-8,.cls-9{mix-blend-mode:multiply;}.cls-3{fill:url(#linear-gradient-2);}.cls-10,.cls-4{mix-blend-mode:screen;}.cls-4{fill:url(#linear-gradient-3);}.cls-5{fill:url(#linear-gradient-4);}.cls-6{fill:url(#linear-gradient-5);}.cls-7{fill:url(#linear-gradient-6);}.cls-8{fill:url(#linear-gradient-7);}.cls-9{fill:url(#linear-gradient-8);}.cls-10{fill:url(#linear-gradient-9);}.cls-11{fill:url(#linear-gradient-10);}</style><linearGradient id="linear-gradient" x1="118.87" y1="357.75" x2="376.15" y2="100.46" gradientUnits="userSpaceOnUse"><stop offset="0" stop-color="#2652dc"/><stop offset="1" stop-color="#528cff"/></linearGradient><linearGradient id="linear-gradient-2" x1="118.36" y1="135.54" x2="118.36" y2="329.98" gradientUnits="userSpaceOnUse"><stop offset="0" stop-color="#2652dc"/><stop offset="1" stop-color="#fff"/></linearGradient><linearGradient id="linear-gradient-3" x1="347.58" y1="148.78" x2="453.58" y2="42.78" gradientUnits="userSpaceOnUse"><stop offset="0" stop-color="#0b132a"/><stop offset="1" stop-color="#528cff"/></linearGradient><linearGradient id="linear-gradient-4" x1="328.01" y1="118.36" x2="101.96" y2="118.36" xlink:href="#linear-gradient-2"/><linearGradient id="linear-gradient-5" x1="385.44" y1="358.25" x2="164.7" y2="358.25" gradientUnits="userSpaceOnUse"><stop offset="0" stop-color="#528cff"/><stop offset="1" stop-color="#2652dc"/></linearGradient><linearGradient id="linear-gradient-6" x1="361.29" y1="381.03" x2="257.75" y2="277.5" gradientUnits="userSpaceOnUse"><stop offset="0" stop-color="#fff"/><stop offset="1" stop-color="#2652dc"/></linearGradient><linearGradient id="linear-gradient-7" x1="459.68" y1="207.29" x2="321.36" y2="207.29" xlink:href="#linear-gradient-2"/><linearGradient id="linear-gradient-8" x1="269.33" y1="337.81" x2="269.33" y2="443.76" gradientUnits="userSpaceOnUse"><stop offset="0" stop-color="#fff"/><stop offset="1" stop-color="#fff"/></linearGradient><linearGradient id="linear-gradient-9" x1="147.57" y1="269.33" x2="0.25" y2="269.33" xlink:href="#linear-gradient-3"/><linearGradient id="linear-gradient-10" x1="207.29" y1="10" x2="207.29" y2="148.49" xlink:href="#linear-gradient-2"/></defs><g class="cls-1"><g id="Layer_2" data-name="Layer 2"><g id="Layer_1-2" data-name="Layer 1"><path class="cls-2" d="M0,238.31C0,369.92,106.69,476.62,238.31,476.62s238.31-106.7,238.31-238.31S369.92,0,238.31,0,0,106.69,0,238.31Zm147.11-22.84a68.37,68.37,0,0,1,68.36-68.36h45.67a68.36,68.36,0,0,1,68.36,68.36v45.67a68.35,68.35,0,0,1-68.36,68.36H231.48a46.69,46.69,0,0,0-29.82,10.73l-54.55,45.15V215.47Z"/><path class="cls-3" d="M147.11,385.37V215.47c0-.28,0-.56,0-.84a68.36,68.36,0,0,1,68.34-67.52H91.24c-50,0-91,40.23-91.24,90.23v1c0,2,0,4,.07,5.94,0,1,.08,2,.11,3s.06,1.91.11,2.86c.07,1.36.16,2.7.25,4.05,0,.57.06,1.14.1,1.71.12,1.57.26,3.13.4,4.69l.09,1c.17,1.73.36,3.44.56,5.16,0,.15,0,.3.05.46.22,1.82.47,3.64.73,5.45,0,0,0,.08,0,.11,16.61,114.8,115,203.1,234.25,203.88C187,476.06,147.11,435.16,147.11,385.37Z"/><path class="cls-4" d="M476.54,232.36c0-1-.07-2-.11-3s-.06-1.91-.11-2.86c-.06-1.36-.15-2.71-.24-4.06,0-.56-.07-1.13-.11-1.7-.11-1.57-.25-3.13-.4-4.7,0-.33-.05-.66-.08-1-.17-1.72-.36-3.44-.56-5.15l-.06-.46q-.33-2.73-.72-5.45s0-.08,0-.12C457.53,89.1,359.1.8,239.89,0,289.6.55,329.5,41.45,329.5,91.24v169.9c0,.28,0,.56,0,.84a68.35,68.35,0,0,1-68.34,67.52H385.37c50,0,91.05-40.23,91.24-90.22,0-.33,0-.65,0-1Q476.62,235.33,476.54,232.36Z"/><path class="cls-5" d="M239.28,0h-1c-2,0-4,0-5.95.07l-3,.11c-1,0-1.91.06-2.86.11-1.36.07-2.71.16-4.06.25l-1.7.1c-1.57.12-3.13.26-4.7.4l-1,.09c-1.72.17-3.44.36-5.15.56l-.46.05c-1.82.22-3.64.47-5.45.73h-.12C89.1,19.09.8,117.51,0,236.73.55,187,41.45,147.11,91.24,147.11h169.9l.84,0a68.34,68.34,0,0,1,67.52,68.33V91.24C329.5,41.25,289.27.2,239.28,0Z"/><path class="cls-6" d="M261.14,329.5H385.37c49.79,0,90.69-39.9,91.23-89.61-.78,119.21-89.08,217.64-203.88,234.24l-.11,0q-2.72.39-5.45.72l-.46.06c-1.72.2-3.43.39-5.16.56l-1,.08c-1.56.15-3.12.29-4.69.4l-1.71.11c-1.35.09-2.69.18-4.05.24-.95.05-1.91.08-2.86.11s-2,.09-3,.11q-3,.07-5.94.08h-1c-50-.2-90.23-41.24-90.23-91.24l54.55-45.15a46.69,46.69,0,0,1,29.82-10.73Z"/><path class="cls-7" d="M261.14,329.5H385.37c49.79,0,90.69-39.9,91.23-89.61-.78,119.21-89.08,217.64-203.88,234.24l-.11,0q-2.72.39-5.45.72l-.46.06c-1.72.2-3.43.39-5.16.56l-1,.08c-1.56.15-3.12.29-4.69.4l-1.71.11c-1.35.09-2.69.18-4.05.24-.95.05-1.91.08-2.86.11s-2,.09-3,.11q-3,.07-5.94.08h-1c-50-.2-90.23-41.24-90.23-91.24l54.55-45.15a46.69,46.69,0,0,1,29.82-10.73Z"/><path class="cls-8" d="M329.27,85.08c.14,2,.23,4.09.23,6.16v169.9c0,.28,0,.56,0,.84a68.35,68.35,0,0,1-68.34,67.52H385.37c2.08,0,4.13-.09,6.17-.23A178.23,178.23,0,0,0,329.27,85.08Z"/><path class="cls-9" d="M391.54,329.27c-2,.14-4.09.23-6.17.23H231.48a46.69,46.69,0,0,0-29.82,10.73l-54.55,45.15c0,2.08.1,4.13.23,6.17a178.24,178.24,0,0,0,244.2-62.27Z"/><path class="cls-10" d="M85.08,147.34a178.25,178.25,0,0,0,62.26,244.2c-.13-2-.23-4.09-.23-6.17V215.47c0-.28,0-.56,0-.84a68.36,68.36,0,0,1,68.34-67.52H91.24C89.17,147.11,87.12,147.21,85.08,147.34Z"/><path class="cls-11" d="M85.08,147.34c2-.13,4.09-.23,6.16-.23h169.9l.84,0a68.34,68.34,0,0,1,67.52,68.33V91.24c0-2.07-.09-4.12-.23-6.16A178.24,178.24,0,0,0,85.08,147.34Z"/></g></g></g></svg>